<svg width="20" height="20" viewBox="0 0 20 20" fill="none" xmlns="http://www.w3.org/2000/svg">
<path d="M16.25 11.31L10 17.5L3.75009 11.31M3.75009 11.31C3.33784 10.9089 3.01313 10.4266 2.79638 9.89386C2.57963 9.36102 2.47555 8.78917 2.4907 8.21409C2.50585 7.63911 2.63989 7.07346 2.88438 6.55278C3.12888 6.03213 3.47853 5.56773 3.91133 5.18883C4.34413 4.80993 4.85067 4.52474 5.3991 4.35124C5.94753 4.17773 6.52593 4.11966 7.09789 4.18067C7.66986 4.24169 8.22298 4.42047 8.72252 4.70576C9.22198 4.99105 9.65698 5.37667 10 5.83834C10.3447 5.38003 10.7802 4.99777 11.2793 4.71552C11.7785 4.43324 12.3305 4.25705 12.9009 4.19794C13.4713 4.13883 14.0477 4.19809 14.594 4.37201C15.1405 4.54592 15.645 4.83073 16.0764 5.20864C16.5077 5.58655 16.8563 6.04942 17.1004 6.56825C17.3446 7.08709 17.4789 7.65075 17.4954 8.22394C17.5117 8.79709 17.4095 9.36748 17.1953 9.89941C16.9809 10.4312 16.6593 10.9132 16.25 11.315" stroke="#111827" stroke-linecap="round" stroke-linejoin="round"/>
</svg>
