<svg width="14" height="14" viewBox="0 0 14 14" fill="none" xmlns="http://www.w3.org/2000/svg">
<path id="Instagram" d="M7 1.28333C8.86667 1.28333 9.1 1.28333 9.85833 1.34167C11.7833 1.4 12.6583 2.33333 12.7167 4.2C12.775 4.95833 12.775 5.13333 12.775 7C12.775 8.86667 12.775 9.1 12.7167 9.8C12.6583 11.6667 11.725 12.6 9.85833 12.6583C9.1 12.7167 8.925 12.7167 7 12.7167C5.13333 12.7167 4.9 12.7167 4.2 12.6583C2.275 12.6 1.4 11.6667 1.34167 9.8C1.28333 9.04167 1.28333 8.86667 1.28333 7C1.28333 5.13333 1.28333 4.9 1.34167 4.2C1.4 2.33333 2.33333 1.4 4.2 1.34167C4.9 1.28333 5.13333 1.28333 7 1.28333ZM7 0C5.075 0 4.84167 0 4.14167 0.0583333C1.575 0.175 0.175 1.575 0.0583333 4.14167C0 4.84167 0 5.075 0 7C0 8.925 0 9.15833 0.0583333 9.85833C0.175 12.425 1.575 13.825 4.14167 13.9417C4.84167 14 5.075 14 7 14C8.925 14 9.15833 14 9.85833 13.9417C12.425 13.825 13.825 12.425 13.9417 9.85833C14 9.15833 14 8.925 14 7C14 5.075 14 4.84167 13.9417 4.14167C13.825 1.575 12.425 0.175 9.85833 0.0583333C9.15833 0 8.925 0 7 0ZM7 3.38333C5.01667 3.38333 3.38333 5.01667 3.38333 7C3.38333 8.98333 5.01667 10.6167 7 10.6167C8.98333 10.6167 10.6167 8.98333 10.6167 7C10.6167 5.01667 8.98333 3.38333 7 3.38333ZM7 9.33333C5.71667 9.33333 4.66667 8.28333 4.66667 7C4.66667 5.71667 5.71667 4.66667 7 4.66667C8.28333 4.66667 9.33333 5.71667 9.33333 7C9.33333 8.28333 8.28333 9.33333 7 9.33333ZM10.7333 2.45C10.2667 2.45 9.91667 2.8 9.91667 3.26667C9.91667 3.73333 10.2667 4.08333 10.7333 4.08333C11.2 4.08333 11.55 3.73333 11.55 3.26667C11.55 2.8 11.2 2.45 10.7333 2.45Z" fill="black"/>
</svg>
