<svg width="17" height="11" viewBox="0 0 17 11" fill="none" xmlns="http://www.w3.org/2000/svg">
<path fill-rule="evenodd" clip-rule="evenodd" d="M-2.40413e-07 5.5C-2.47496e-07 5.33795 0.0639623 5.18253 0.177816 5.06794C0.29167 4.95335 0.44609 4.88898 0.607104 4.88898L14.9263 4.88897L11.1051 1.0444C10.9911 0.929669 10.9271 0.774056 10.9271 0.611797C10.9271 0.449539 10.9911 0.293925 11.1051 0.179191C11.2191 0.0644567 11.3738 1.61687e-07 11.535 1.51441e-07C11.6962 1.41196e-07 11.8508 0.0644567 11.9648 0.179191L16.8216 5.06739C16.8782 5.12415 16.923 5.19158 16.9536 5.26581C16.9842 5.34005 17 5.41963 17 5.5C17 5.58037 16.9842 5.65995 16.9536 5.73419C16.923 5.80842 16.8782 5.87585 16.8216 5.93261L11.9648 10.8208C11.8508 10.9355 11.6962 11 11.535 11C11.3738 11 11.2191 10.9355 11.1051 10.8208C10.9912 10.7061 10.9271 10.5505 10.9271 10.3882C10.9271 10.2259 10.9912 10.0703 11.1051 9.9556L14.9263 6.11103L0.607104 6.11103C0.44609 6.11103 0.291671 6.04665 0.177816 5.93206C0.0639623 5.81747 -2.33329e-07 5.66205 -2.40413e-07 5.5Z" fill="black"/>
</svg>
