<svg width="24" height="24" viewBox="0 0 24 24" fill="none" xmlns="http://www.w3.org/2000/svg">
<path d="M15.4282 9.19343C16.7323 9.19343 17.7931 8.13263 17.7931 6.82895C17.7931 5.52479 16.7323 4.46399 15.4282 4.46399C14.1245 4.46399 13.0637 5.52479 13.0637 6.82895C13.0637 7.13567 13.1266 7.42655 13.2336 7.69583L8.53632 10.4203C8.10768 9.98831 7.5144 9.71999 6.85968 9.71999C5.556 9.71999 4.4952 10.7808 4.4952 12.0845C4.4952 13.3886 5.556 14.4494 6.85968 14.4494C7.52448 14.4494 8.124 14.171 8.55408 13.7275L13.212 16.6632C13.1218 16.9133 13.0642 17.1787 13.0642 17.4595C13.0642 18.7632 14.125 19.824 15.4286 19.824C16.7328 19.824 17.7936 18.7632 17.7936 17.4595C17.7936 16.1553 16.7328 15.0945 15.4286 15.0945C14.7509 15.0945 14.1432 15.3849 13.7117 15.8433L9.06576 12.9149C9.16368 12.6552 9.22416 12.3773 9.22416 12.084C9.22416 11.7811 9.16176 11.4941 9.0576 11.2277L13.7592 8.50079C14.1864 8.92895 14.7768 9.19343 15.4282 9.19343ZM15.4282 16.055C16.2029 16.055 16.8331 16.6853 16.8331 17.46C16.8331 18.2342 16.2029 18.8645 15.4282 18.8645C14.6539 18.8645 14.0237 18.2342 14.0237 17.46C14.0237 17.2017 14.0986 16.9627 14.2205 16.7549C14.2243 16.7496 14.2291 16.7457 14.233 16.74C14.2382 16.7318 14.2382 16.7222 14.243 16.7141C14.4912 16.3195 14.928 16.055 15.4282 16.055ZM6.8592 13.4899C6.08496 13.4899 5.45472 12.8597 5.45472 12.0849C5.45472 11.3107 6.08496 10.6805 6.8592 10.6805C7.31712 10.6805 7.7208 10.9041 7.9776 11.2445C7.98432 11.2598 7.9848 11.2761 7.99344 11.2905C8.016 11.3299 8.04384 11.364 8.07504 11.3942C8.19168 11.5992 8.26416 11.8325 8.26416 12.0845C8.26416 12.36 8.1816 12.6158 8.04384 12.8328C8.04288 12.8342 8.04144 12.8347 8.04048 12.8361C8.03856 12.839 8.03904 12.8419 8.03712 12.8448C7.78608 13.2321 7.35312 13.4899 6.8592 13.4899ZM15.4282 5.42447C16.2029 5.42447 16.8331 6.05471 16.8331 6.82943C16.8331 7.60367 16.2029 8.23391 15.4282 8.23391C14.6539 8.23391 14.0237 7.60367 14.0237 6.82943C14.0237 6.05423 14.6534 5.42447 15.4282 5.42447Z" fill="#111827"/>
</svg>
