<svg width="18" height="14" viewBox="0 0 18 14" fill="none" xmlns="http://www.w3.org/2000/svg">
<path id="Twitter" d="M5.41744 14C11.9181 14 15.4731 8.6143 15.4731 3.9443C15.4731 3.79129 15.47 3.63906 15.4629 3.48741C16.153 2.98859 16.7529 2.36595 17.2261 1.6575C16.5928 1.93884 15.9114 2.1283 15.1965 2.21372C15.9261 1.77623 16.4864 1.08384 16.7507 0.258617C16.0678 0.663588 15.3115 0.957863 14.5067 1.11656C13.8615 0.429657 12.943 0 11.9268 0C9.97478 0 8.39193 1.58285 8.39193 3.53385C8.39193 3.81127 8.42308 4.08086 8.48342 4.33967C5.54636 4.19214 2.94177 2.78562 1.19885 0.647326C0.894972 1.16946 0.720013 1.77642 0.720013 2.42356C0.720013 3.64964 1.34403 4.7321 2.29288 5.36552C1.71314 5.34769 1.16848 5.18821 0.692192 4.92332C0.691409 4.93802 0.691409 4.95291 0.691409 4.96839C0.691409 6.68016 1.90985 8.10921 3.52679 8.43307C3.22997 8.51399 2.91767 8.55748 2.59518 8.55748C2.36752 8.55748 2.14613 8.53475 1.93081 8.49381C2.38065 9.89778 3.68549 10.9197 5.23249 10.9485C4.02267 11.8966 2.49879 12.4614 0.843052 12.4614C0.557986 12.4614 0.276642 12.4452 0 12.4124C1.56405 13.4148 3.42119 14 5.41744 14Z" fill="black"/>
</svg>
