<svg width="45" height="16" viewBox="0 0 45 16" fill="none" xmlns="http://www.w3.org/2000/svg">
<path d="M21.5294 12H19.9454L19.1654 9.792H15.8894L15.1334 12H13.5374L16.7654 3.6H18.3254L21.5294 12ZM17.0294 6.504L16.3334 8.532H18.7214L18.0134 6.504C17.8574 6.06 17.6534 5.484 17.5214 4.98H17.5094C17.3534 5.568 17.2094 5.976 17.0294 6.504ZM25.5245 5.856C27.0725 5.856 28.2125 7.044 28.2125 9C28.2125 10.896 27.1205 12.144 25.5605 12.144C24.8165 12.144 24.1685 11.856 23.7125 11.268V14.4H22.2845V6H23.7125V6.804C24.1325 6.168 24.7805 5.856 25.5245 5.856ZM26.1725 10.74C26.5205 10.404 26.6645 9.816 26.6645 8.988C26.6645 7.608 26.3045 6.9 25.1645 6.9C24.6845 6.9 24.3245 7.068 24.0725 7.38C23.7965 7.728 23.6765 8.28 23.6765 8.976C23.6765 10.188 23.9765 11.088 25.1405 11.088C25.5965 11.088 25.9445 10.968 26.1725 10.74ZM32.5674 5.856C34.1154 5.856 35.2554 7.044 35.2554 9C35.2554 10.896 34.1634 12.144 32.6034 12.144C31.8594 12.144 31.2114 11.856 30.7554 11.268V14.4H29.3274V6H30.7554V6.804C31.1754 6.168 31.8234 5.856 32.5674 5.856ZM33.2154 10.74C33.5634 10.404 33.7074 9.816 33.7074 8.988C33.7074 7.608 33.3474 6.9 32.2074 6.9C31.7274 6.9 31.3674 7.068 31.1154 7.38C30.8394 7.728 30.7194 8.28 30.7194 8.976C30.7194 10.188 31.0194 11.088 32.1834 11.088C32.6394 11.088 32.9874 10.968 33.2154 10.74ZM37.7984 12H36.3704V3.6H37.7984V12ZM44.1375 6.852C44.6175 7.452 44.8575 8.364 44.8215 9.396H40.3575C40.3815 10.512 40.8855 11.076 41.8815 11.076C42.7575 11.076 43.2135 10.704 43.3455 9.972L44.7255 10.08C44.4135 11.46 43.4295 12.144 41.8935 12.144C40.9575 12.144 40.2375 11.844 39.7215 11.316C39.1695 10.752 38.9175 9.96 38.9175 8.988C38.9175 8.064 39.1815 7.272 39.7215 6.696C40.2495 6.144 40.9695 5.856 41.8815 5.856C42.8295 5.856 43.6335 6.216 44.1375 6.852ZM41.8815 6.924C41.3175 6.924 40.9095 7.116 40.6695 7.452C40.4775 7.716 40.3935 8.04 40.3695 8.328H43.3695C43.3455 7.992 43.2375 7.644 43.0335 7.392C42.7695 7.068 42.4095 6.924 41.8815 6.924Z" fill="black"/>
<path fill-rule="evenodd" clip-rule="evenodd" d="M6.45 3.95C6.075 4.475 5.4 4.775 4.875 4.775C4.8 4.775 4.725 4.775 4.725 4.775C4.725 4.7 4.725 4.625 4.725 4.55C4.725 3.95 5.025 3.35 5.325 2.9C5.775 2.375 6.45 2 7.05 2C7.05 2.075 7.05 2.15 7.05 2.225C7.05 2.825 6.825 3.5 6.45 3.95ZM3.9 13.775C3.6 13.925 3.375 14 3 14C2.25 14 1.8 13.325 1.2 12.5C0.525 11.525 0 9.95 0 8.525C0 6.2 1.5 4.925 2.925 4.925C3.375 4.925 3.75 5.075 4.05 5.225C4.35 5.375 4.575 5.45 4.8 5.45C5.025 5.45 5.25 5.375 5.475 5.225C5.85 5.075 6.3 4.85 6.825 4.85C7.125 4.85 8.325 4.85 9.15 6.05C8.925 6.2 7.95 6.875 7.95 8.3C7.95 10.1 9.45 10.7 9.525 10.7C9.375 11 9.15 11.75 8.7 12.5C8.175 13.25 7.65 14 6.9 14C6.525 14 6.3 13.85 6 13.775C5.7 13.625 5.475 13.55 4.95 13.55C4.5 13.475 4.2 13.625 3.9 13.775Z" fill="black"/>
</svg>
