<svg xmlns="http://www.w3.org/2000/svg" width="24" height="24" viewBox="0 0 24 24">
  <g id="Group_388" data-name="Group 388" transform="translate(-202 -412)">
    <rect id="Rectangle_506" data-name="Rectangle 506" width="24" height="24" transform="translate(202 412)" fill="none" opacity="0"/>
    <g id="Iconly_Light-outline_Image_2" data-name="Iconly/Light-outline/Image 2" transform="translate(202 412)">
      <g id="Image_2" data-name="Image 2" transform="translate(2 2)">
        <path id="Image_2-2" data-name="Image 2" d="M5.666,20a5.5,5.5,0,0,1-4.11-1.651A6.046,6.046,0,0,1,0,14.083V5.917A6.043,6.043,0,0,1,1.559,1.651,5.5,5.5,0,0,1,5.666,0h8.667a5.5,5.5,0,0,1,4.11,1.651A6.046,6.046,0,0,1,20,5.917v8.167a6.046,6.046,0,0,1-1.556,4.266A5.5,5.5,0,0,1,14.333,20Zm0-1.5h8.666a4.042,4.042,0,0,0,3.038-1.2A4.582,4.582,0,0,0,18.5,14.083v-.768l-.049-.043c-.1-.1-.216-.2-.35-.329l-.7-.673a8.48,8.48,0,0,0-1.544-1.246,1.6,1.6,0,0,0-2.185.58l-.125.168c-.041.059-.084.12-.13.189l-.391.621a5.174,5.174,0,0,1-1.994,2.178A2.533,2.533,0,0,1,8.24,14.6L7.8,14.328l-.368-.238a3.456,3.456,0,0,0-.506-.27c-.67-.281-1.266.03-2.089,1.005L3.032,17.032l-.3.366A4.076,4.076,0,0,0,5.666,18.5ZM1.5,5.917v8.167a5.326,5.326,0,0,0,.36,2l1.15-1.4.508-.626c1.28-1.585,2.452-2.27,3.988-1.626a4.722,4.722,0,0,1,.688.361l.661.427c.66.418.974.478,1.456.217A3.286,3.286,0,0,0,11.5,12.177l.3-.478.2-.328a8.341,8.341,0,0,1,.474-.688,3.089,3.089,0,0,1,4.151-.948,9.941,9.941,0,0,1,1.867,1.5V5.917a4.574,4.574,0,0,0-1.126-3.211,4.037,4.037,0,0,0-3.038-1.2H5.666C3.137,1.5,1.5,3.236,1.5,5.917ZM4.271,6.8a2.6,2.6,0,1,1,2.6,2.6A2.6,2.6,0,0,1,4.271,6.8Zm1.5,0a1.1,1.1,0,1,0,1.1-1.1A1.1,1.1,0,0,0,5.774,6.8Z" fill="#200e32"/>
      </g>
    </g>
  </g>
</svg>
