<svg width="48" height="48" viewBox="0 0 48 48" fill="none" xmlns="http://www.w3.org/2000/svg">
<path d="M48 24C48 37.2548 37.2548 48 24 48C10.7452 48 0 37.2548 0 24C0 10.7452 10.7452 0 24 0C37.2548 0 48 10.7452 48 24Z" fill="#F0F0DF"/>
<path d="M19.2045 20.9271L14.1333 28.7679C13.6466 29.5203 14.5957 30.3682 15.3227 29.8306L20.77 25.8017C21.1385 25.5291 21.6477 25.5277 22.0178 25.7981L26.0512 28.7462C27.2614 29.6309 28.9889 29.3203 29.7956 28.073L34.8667 20.2321C35.3534 19.4797 34.4043 18.6318 33.6772 19.1694L28.2299 23.1984C27.8615 23.4709 27.3523 23.4724 26.9823 23.2018L22.9489 20.2538C21.7385 19.3692 20.0111 19.6797 19.2045 20.9271Z" fill="black"/>
</svg>
