<svg width="70" height="16" viewBox="0 0 70 16" fill="none" xmlns="http://www.w3.org/2000/svg">
<path d="M18.388 12H16.9V3.6H22.6V4.848H18.388V7.14H22.156V8.376H18.388V12ZM27.5994 6.828V6H29.0154V12H27.5994V11.256C27.1674 11.856 26.5674 12.144 25.7634 12.144C24.1674 12.144 23.0874 10.896 23.0874 9C23.0874 7.044 24.2274 5.844 25.7754 5.844C26.5554 5.844 27.1794 6.192 27.5994 6.828ZM27.1794 10.692C27.5154 10.32 27.6354 9.696 27.6354 8.988C27.6354 7.656 27.1434 6.9 26.1474 6.9C25.6314 6.9 25.2834 7.044 25.0434 7.332C24.7434 7.68 24.6354 8.244 24.6354 8.988C24.6354 10.38 25.0314 11.088 26.1714 11.088C26.6154 11.088 26.9394 10.944 27.1794 10.692ZM33.1781 12.144C31.2581 12.144 30.1421 10.968 30.1421 9C30.1421 7.152 31.2581 5.856 33.1781 5.856C34.7741 5.856 35.6261 6.756 35.8661 7.98L34.5341 8.22C34.3781 7.548 34.0901 6.936 33.1781 6.936C32.6261 6.936 32.2661 7.104 32.0381 7.404C31.7741 7.764 31.6901 8.316 31.6901 9C31.6901 10.296 31.9901 11.064 33.1781 11.064C33.9341 11.064 34.3421 10.692 34.5341 9.948L35.9021 10.092C35.6981 11.304 34.6781 12.144 33.1781 12.144ZM41.784 6.852C42.264 7.452 42.504 8.364 42.468 9.396H38.004C38.028 10.512 38.532 11.076 39.528 11.076C40.404 11.076 40.86 10.704 40.992 9.972L42.372 10.08C42.06 11.46 41.076 12.144 39.54 12.144C38.604 12.144 37.884 11.844 37.368 11.316C36.816 10.752 36.564 9.96 36.564 8.988C36.564 8.064 36.828 7.272 37.368 6.696C37.896 6.144 38.616 5.856 39.528 5.856C40.476 5.856 41.28 6.216 41.784 6.852ZM39.528 6.924C38.964 6.924 38.556 7.116 38.316 7.452C38.124 7.716 38.04 8.04 38.016 8.328H41.016C40.992 7.992 40.884 7.644 40.68 7.392C40.416 7.068 40.056 6.924 39.528 6.924ZM46.8197 5.844C48.4037 5.844 49.4957 7.104 49.4957 9C49.4957 10.944 48.3797 12.144 46.7837 12.144C46.0037 12.144 45.3437 11.748 44.9957 11.172V12H43.5677V3.6H44.9957V6.744C45.3917 6.168 46.0517 5.844 46.8197 5.844ZM47.5037 10.716C47.8157 10.368 47.9477 9.792 47.9477 9C47.9477 7.62 47.5637 6.9 46.4357 6.9C45.9437 6.9 45.5957 7.068 45.3677 7.356C45.0677 7.74 44.9597 8.328 44.9597 9.012C44.9597 10.368 45.4517 11.1 46.4477 11.1C46.9157 11.1 47.2637 10.968 47.5037 10.716ZM53.3466 12.144C51.4266 12.144 50.2746 10.956 50.2746 9C50.2746 7.176 51.4386 5.856 53.3466 5.856C55.2306 5.856 56.3946 7.188 56.3946 9C56.3946 10.884 55.1946 12.144 53.3466 12.144ZM53.3466 11.1C53.8506 11.1 54.2226 10.956 54.4626 10.668C54.7506 10.32 54.8706 9.768 54.8706 9C54.8706 8.232 54.7386 7.68 54.4506 7.332C54.2106 7.044 53.8506 6.9 53.3466 6.9C52.8546 6.9 52.4826 7.032 52.2426 7.308C51.9306 7.644 51.7986 8.208 51.7986 9C51.7986 9.792 51.9306 10.356 52.2426 10.692C52.4826 10.968 52.8426 11.1 53.3466 11.1ZM60.2373 12.144C58.3173 12.144 57.1653 10.956 57.1653 9C57.1653 7.176 58.3293 5.856 60.2373 5.856C62.1213 5.856 63.2853 7.188 63.2853 9C63.2853 10.884 62.0853 12.144 60.2373 12.144ZM60.2373 11.1C60.7413 11.1 61.1133 10.956 61.3533 10.668C61.6413 10.32 61.7613 9.768 61.7613 9C61.7613 8.232 61.6293 7.68 61.3413 7.332C61.1013 7.044 60.7413 6.9 60.2373 6.9C59.7453 6.9 59.3733 7.032 59.1333 7.308C58.8213 7.644 58.6893 8.208 58.6893 9C58.6893 9.792 58.8213 10.356 59.1333 10.692C59.3733 10.968 59.7333 11.1 60.2373 11.1ZM69.8639 12H68.2319L66.4799 9.144L65.8199 9.768V12H64.3919V3.6H65.8199V8.184L67.9559 6H69.7919L67.4399 8.232L69.8639 12Z" fill="black"/>
<path d="M5.98772 2C2.68987 2 0 4.71067 0 8.03404C0 10.9427 2.05732 13.4368 4.88843 13.9691L5.06039 14V9.77927H3.53736V8.03404H5.06039V6.70345C5.06039 5.97318 5.27533 5.36669 5.68065 4.96441C6.07369 4.56833 6.64483 4.35791 7.32653 4.35791C7.66427 4.35791 8.01433 4.38886 8.24153 4.41981C8.37053 4.43218 8.47493 4.45075 8.5486 4.45694L8.64687 4.46931L8.66533 5.96081H7.90993C7.566 5.96081 7.30807 6.05983 7.14227 6.25167C7.00713 6.41259 6.93347 6.63538 6.93347 6.90149V8.03404H8.59773L8.33367 9.77927H6.9396V14L7.11153 13.9691C9.94267 13.4368 12 10.9427 12 8.03404C11.9816 4.71067 9.29173 2 5.98772 2Z" fill="black"/>
</svg>
