<svg width="14" height="14" viewBox="0 0 14 14" fill="none" xmlns="http://www.w3.org/2000/svg">
<path d="M7.01001 13.5C10.5999 13.5 13.51 10.5899 13.51 7C13.51 3.41015 10.5999 0.5 7.01001 0.5C3.42016 0.5 0.51001 3.41015 0.51001 7C0.51001 10.5899 3.42016 13.5 7.01001 13.5Z" fill="white"/>
<path d="M6.99999 1C8.18668 1 9.34673 1.35188 10.3334 2.01117C11.3201 2.67046 12.0891 3.60753 12.5433 4.70389C12.9974 5.80024 13.1162 7.00665 12.8847 8.17053C12.6532 9.33442 12.0817 10.4035 11.2426 11.2426C10.4035 12.0818 9.33441 12.6532 8.17052 12.8847C7.00664 13.1162 5.80027 12.9974 4.70391 12.5433C3.60755 12.0891 2.67045 11.3201 2.01116 10.3334C1.35187 9.34671 0.999991 8.18669 0.999991 7C0.999991 5.4087 1.63216 3.88257 2.75738 2.75735C3.88259 1.63214 5.40869 1 6.99999 1ZM6.99999 0C5.61552 0 4.26216 0.410548 3.11101 1.17972C1.95987 1.94889 1.06264 3.04211 0.532828 4.3212C0.00301462 5.60028 -0.135584 7.00776 0.134513 8.36563C0.404609 9.7235 1.07126 10.9708 2.05022 11.9497C3.02919 12.9287 4.27646 13.5954 5.63433 13.8655C6.9922 14.1356 8.39968 13.997 9.67876 13.4672C10.9578 12.9373 12.0511 12.0401 12.8203 10.889C13.5895 9.73783 14 8.38447 14 7C14 5.14348 13.2625 3.36299 11.9498 2.05023C10.637 0.737477 8.85651 0 6.99999 0Z" fill="black"/>
<path d="M11.1299 2.88H2.8999V11.11H11.1299V2.88Z" fill="black"/>
<path d="M10.6301 3.39001V10.62H3.40015V3.39001H10.6301ZM11.6301 2.39001H2.40015V11.62H11.6301V2.39001Z" fill="black"/>
</svg>
