<svg width="14" height="14" viewBox="0 0 14 14" fill="none" xmlns="http://www.w3.org/2000/svg">
<g clip-path="url(#clip0_1651_6014)">
<path d="M6.99996 13.5C5.71438 13.5 4.45768 13.1188 3.38876 12.4045C2.31984 11.6903 1.48674 10.6751 0.994775 9.48742C0.502806 8.2997 0.374098 6.99277 0.624902 5.7319C0.875706 4.47102 1.49473 3.31284 2.40377 2.4038C3.31281 1.49476 4.47102 0.875676 5.7319 0.624872C6.99277 0.374069 8.29967 0.502806 9.48739 0.994776C10.6751 1.48675 11.6903 2.31987 12.4045 3.38879C13.1187 4.45771 13.5 5.71442 13.5 6.99999C13.4973 8.72309 12.8116 10.3748 11.5932 11.5933C10.3748 12.8117 8.72306 13.4973 6.99996 13.5Z" fill="white"/>
<path d="M6.99999 1.00001C8.18668 1.00001 9.34673 1.35189 10.3334 2.01118C11.3201 2.67047 12.0891 3.60754 12.5433 4.7039C12.9974 5.80025 13.1162 7.00665 12.8847 8.17054C12.6532 9.33443 12.0818 10.4035 11.2427 11.2427C10.4036 12.0818 9.33441 12.6532 8.17052 12.8847C7.00664 13.1162 5.80027 12.9974 4.70391 12.5433C3.60755 12.0892 2.67045 11.3201 2.01116 10.3334C1.35187 9.34672 0.999991 8.1867 0.999991 7.00001C0.999991 5.40871 1.63216 3.88258 2.75738 2.75736C3.88259 1.63215 5.40869 1.00001 6.99999 1.00001ZM6.99999 8.58307e-06C5.61552 8.58307e-06 4.26216 0.410557 3.11101 1.17973C1.95987 1.9489 1.06264 3.04212 0.532828 4.32121C0.00301462 5.60029 -0.135584 7.00777 0.134513 8.36564C0.404609 9.72351 1.07132 10.9708 2.05028 11.9497C3.02925 12.9287 4.27652 13.5954 5.63439 13.8655C6.99226 14.1356 8.39968 13.997 9.67876 13.4672C10.9578 12.9374 12.0511 12.0401 12.8203 10.889C13.5895 9.73784 14 8.38448 14 7.00001C14 5.14349 13.2625 3.363 11.9498 2.05024C10.637 0.737486 8.85651 8.58307e-06 6.99999 8.58307e-06Z" fill="black"/>
<path d="M11.11 2.88H2.88V11.11H11.11V2.88Z" fill="white"/>
<path d="M10.62 3.38999V10.62H3.39001V3.38999H10.62ZM11.62 2.38999H2.39001V11.62H11.62V2.38999Z" fill="black"/>
</g>
<defs>
<clipPath id="clip0_1651_6014">
<rect width="14" height="14" fill="white"/>
</clipPath>
</defs>
</svg>
