<svg width="55" height="16" viewBox="0 0 55 16" fill="none" xmlns="http://www.w3.org/2000/svg">
<path d="M20.452 8.736V7.452H24.388V12H23.128L23.032 10.884C22.516 11.688 21.568 12.144 20.428 12.144C17.932 12.144 16.456 10.596 16.456 7.8C16.456 5.244 17.944 3.456 20.596 3.456C22.444 3.456 23.836 4.38 24.292 6.12L22.732 6.42C22.48 5.448 21.832 4.668 20.596 4.668C19.72 4.668 19.036 4.932 18.616 5.52C18.256 6.024 18.052 6.78 18.052 7.8C18.052 8.832 18.22 9.564 18.592 10.08C19 10.668 19.672 10.932 20.644 10.932C21.988 10.932 22.828 10.176 22.924 8.736H20.452ZM28.4443 12.144C26.5243 12.144 25.3723 10.956 25.3723 9C25.3723 7.176 26.5363 5.856 28.4443 5.856C30.3283 5.856 31.4923 7.188 31.4923 9C31.4923 10.884 30.2923 12.144 28.4443 12.144ZM28.4443 11.1C28.9483 11.1 29.3203 10.956 29.5603 10.668C29.8483 10.32 29.9683 9.768 29.9683 9C29.9683 8.232 29.8363 7.68 29.5483 7.332C29.3083 7.044 28.9483 6.9 28.4443 6.9C27.9523 6.9 27.5803 7.032 27.3403 7.308C27.0283 7.644 26.8963 8.208 26.8963 9C26.8963 9.792 27.0283 10.356 27.3403 10.692C27.5803 10.968 27.9403 11.1 28.4443 11.1ZM35.3349 12.144C33.4149 12.144 32.2629 10.956 32.2629 9C32.2629 7.176 33.4269 5.856 35.3349 5.856C37.2189 5.856 38.3829 7.188 38.3829 9C38.3829 10.884 37.1829 12.144 35.3349 12.144ZM35.3349 11.1C35.8389 11.1 36.2109 10.956 36.4509 10.668C36.7389 10.32 36.8589 9.768 36.8589 9C36.8589 8.232 36.7269 7.68 36.4389 7.332C36.1989 7.044 35.8389 6.9 35.3349 6.9C34.8429 6.9 34.4709 7.032 34.2309 7.308C33.9189 7.644 33.7869 8.208 33.7869 9C33.7869 9.792 33.9189 10.356 34.2309 10.692C34.4709 10.968 34.8309 11.1 35.3349 11.1ZM43.6415 6.792V6H45.0575V11.892C45.0575 13.536 43.9415 14.46 42.1655 14.46C40.7855 14.46 39.5495 13.92 39.4775 12.444L40.8575 12.348C40.9055 13.152 41.4095 13.416 42.2255 13.416C43.1495 13.416 43.6415 12.888 43.6415 11.904V10.968C43.2695 11.616 42.6815 11.952 41.8655 11.952C40.2455 11.952 39.1655 10.716 39.1655 8.844C39.1655 7.068 40.2695 5.856 41.8295 5.856C42.6695 5.856 43.2575 6.204 43.6415 6.792ZM43.2215 10.488C43.5455 10.116 43.6895 9.528 43.6895 8.844C43.6895 7.608 43.2095 6.912 42.2135 6.912C41.7095 6.912 41.3495 7.056 41.1095 7.332C40.8215 7.656 40.7135 8.16 40.7135 8.844C40.7135 10.224 41.0735 10.896 42.1895 10.896C42.6455 10.896 42.9815 10.752 43.2215 10.488ZM47.9371 12H46.5091V3.6H47.9371V12ZM54.2762 6.852C54.7562 7.452 54.9962 8.364 54.9602 9.396H50.4962C50.5202 10.512 51.0242 11.076 52.0202 11.076C52.8962 11.076 53.3522 10.704 53.4842 9.972L54.8642 10.08C54.5522 11.46 53.5682 12.144 52.0322 12.144C51.0962 12.144 50.3762 11.844 49.8602 11.316C49.3082 10.752 49.0562 9.96 49.0562 8.988C49.0562 8.064 49.3202 7.272 49.8602 6.696C50.3882 6.144 51.1082 5.856 52.0202 5.856C52.9682 5.856 53.7722 6.216 54.2762 6.852ZM52.0202 6.924C51.4562 6.924 51.0482 7.116 50.8082 7.452C50.6162 7.716 50.5322 8.04 50.5082 8.328H53.5082C53.4842 7.992 53.3762 7.644 53.1722 7.392C52.9082 7.068 52.5482 6.924 52.0202 6.924Z" fill="black"/>
<g clip-path="url(#clip0_3462_10507)">
<path d="M6.12109 6.91406V9.2474H9.32113C9.18779 9.98073 8.72109 10.6474 8.12109 11.0474L10.0544 12.5807C11.1878 11.5141 11.8544 9.9807 11.8544 8.1807C11.8544 7.7807 11.7878 7.31405 11.7211 6.98071L6.12109 6.91406Z" fill="#4285F4"/>
<path d="M2.78711 9.11328L2.32048 9.44661L0.787109 10.6466C1.78711 12.5799 3.78711 13.9799 6.12044 13.9799C7.72044 13.9799 9.12044 13.4466 10.1204 12.5133L8.18709 10.9799C7.65376 11.3133 6.98709 11.58 6.18709 11.58C4.58709 11.6466 3.25378 10.5799 2.78711 9.11328Z" fill="#34A853"/>
<path d="M0.78776 5.31445C0.38776 6.11445 0.121094 7.04779 0.121094 7.98112C0.121094 8.98112 0.38776 9.84779 0.78776 10.6478L2.78776 9.11446C2.65443 8.78113 2.58781 8.38112 2.58781 7.98112C2.58781 7.58112 2.65443 7.18111 2.78776 6.84778L0.78776 5.31445Z" fill="#FBBC05"/>
<path d="M6.12044 4.38049C6.98711 4.38049 7.78713 4.71382 8.38713 5.24715L10.1204 3.51379C9.05378 2.51379 7.72044 1.98047 6.12044 1.98047C3.78711 1.98047 1.72044 3.3138 0.787109 5.3138L2.78711 6.84713C3.25378 5.44713 4.58711 4.38049 6.12044 4.38049Z" fill="#EA4335"/>
</g>
<defs>
<clipPath id="clip0_3462_10507">
<rect width="12" height="12" fill="white" transform="translate(0 2)"/>
</clipPath>
</defs>
</svg>
