<?xml version="1.0" encoding="utf-8"?>
<!-- Svg Vector Icons : http://www.onlinewebfonts.com/icon -->
<!DOCTYPE svg PUBLIC "-//W3C//DTD SVG 1.1//EN" "http://www.w3.org/Graphics/SVG/1.1/DTD/svg11.dtd">
<svg version="1.1" xmlns="http://www.w3.org/2000/svg" fill="rgb(251, 176, 59)" xmlns:xlink="http://www.w3.org/1999/xlink" x="0px" y="0px" viewBox="0 0 1000 1000" enable-background="new 0 0 1000 1000" xml:space="preserve">
<metadata> Svg Vector Icons : http://www.onlinewebfonts.com/icon </metadata>
<g><path d="M820.5,412.3c-5.2-14.6-20.2-24.5-37.1-24.5H595.8l-58-161.8c-5.2-14.6-20.2-24.5-37.1-24.5c-16.9,0-31.9,9.9-37.1,24.5l-58,161.8H218c-16.9,0-31.9,9.9-37.1,24.5c-5.2,14.6,0.5,30.6,14.2,39.6l151.8,100l-58,161.8c-5.2,14.6,0.5,30.6,14.2,39.6c13.7,9,32.2,9,45.9,0l151.8-100l151.8,100c6.8,4.5,14.9,6.8,22.9,6.8s16.1-2.3,22.9-6.8c13.7-9,19.4-25,14.2-39.6l-58-161.8l151.8-100C820,442.8,825.8,426.8,820.5,412.3z"/><path d="M500,10C229.4,10,10,229.4,10,500c0,270.6,219.4,490,490,490c270.6,0,490-219.4,490-490C990,229.4,770.6,10,500,10z M500,974.2C238.1,974.2,25.8,761.9,25.8,500C25.8,238.1,238.1,25.8,500,25.8c261.9,0,474.2,212.3,474.2,474.2C974.2,761.9,761.9,974.2,500,974.2z"/></g>
</svg>