<svg width="14" height="14" viewBox="0 0 14 14" fill="none" xmlns="http://www.w3.org/2000/svg">
<g clip-path="url(#clip0_1651_6024)">
<path d="M12.25 14.0004H11.0833V11.0586C11.0829 10.6013 10.901 10.1628 10.5776 9.83942C10.2542 9.51603 9.81575 9.33415 9.35842 9.33369H4.64158C4.18425 9.33415 3.74578 9.51603 3.42239 9.83942C3.09901 10.1628 2.91713 10.6013 2.91667 11.0586V14.0004H1.75V11.0586C1.75093 10.292 2.05587 9.55705 2.59795 9.01497C3.14002 8.47289 3.87497 8.16795 4.64158 8.16702H9.35842C10.125 8.16795 10.86 8.47289 11.4021 9.01497C11.9441 9.55705 12.2491 10.292 12.25 11.0586V14.0004Z" fill="black"/>
<path d="M7 6.99996C6.30777 6.99996 5.63108 6.79469 5.05551 6.41011C4.47993 6.02552 4.03133 5.4789 3.76642 4.83936C3.50152 4.19981 3.4322 3.49608 3.56725 2.81715C3.7023 2.13821 4.03564 1.51457 4.52513 1.02509C5.01461 0.535606 5.63825 0.202263 6.31719 0.067215C6.99612 -0.0678333 7.69985 0.00147835 8.33939 0.266385C8.97894 0.531292 9.52556 0.979896 9.91015 1.55547C10.2947 2.13104 10.5 2.80773 10.5 3.49996C10.4991 4.42794 10.13 5.31764 9.47385 5.97381C8.81768 6.62999 7.92798 6.99904 7 6.99996ZM7 1.16663C6.53851 1.16663 6.08739 1.30348 5.70367 1.55987C5.31996 1.81626 5.02089 2.18067 4.84428 2.60704C4.66768 3.0334 4.62147 3.50255 4.7115 3.95517C4.80153 4.4078 5.02376 4.82356 5.35009 5.14988C5.67641 5.4762 6.09217 5.69843 6.54479 5.78846C6.99741 5.8785 7.46657 5.83229 7.89293 5.65568C8.31929 5.47908 8.68371 5.18001 8.9401 4.79629C9.19649 4.41258 9.33334 3.96145 9.33334 3.49996C9.33334 2.88113 9.0875 2.28763 8.64992 1.85005C8.21233 1.41246 7.61884 1.16663 7 1.16663Z" fill="black"/>
</g>
<defs>
<clipPath id="clip0_1651_6024">
<rect width="14" height="14" fill="white"/>
</clipPath>
</defs>
</svg>
