<svg width="47" height="9" viewBox="0 0 47 9" fill="none" xmlns="http://www.w3.org/2000/svg">
<path d="M7.26 7.044C7.26 6.132 6.936 5.52 6.132 5.22C6.924 4.872 7.464 4.176 7.464 3.132C7.464 0.983999 5.904 0.599999 4.092 0.599999H0.828V9H2.64V5.82H4.032C4.98 5.82 5.46 6.192 5.46 7.128C5.46 8.184 5.532 8.556 5.784 9H7.728L7.74 8.964C7.368 8.424 7.26 7.884 7.26 7.044ZM2.64 4.404V2.016H3.948C4.932 2.016 5.676 2.136 5.676 3.204C5.676 4.248 4.932 4.404 3.936 4.404H2.64ZM12.1425 9V0.599999H10.3305V9H12.1425ZM22.6193 9L19.4633 0.599999H17.5913L14.4233 9H16.3433L16.9793 7.032H20.0393L20.6873 9H22.6193ZM17.9993 3.888C18.1673 3.36 18.3233 2.928 18.4913 2.244H18.5033C18.6353 2.844 18.8633 3.444 19.0073 3.888L19.5473 5.532H17.4713L17.9993 3.888ZM30.3058 4.692C31.0138 4.356 31.4578 3.756 31.4578 2.868C31.4578 0.9 29.7058 0.599999 28.0738 0.599999H24.9058V9H28.2418C30.1258 9 31.7818 8.7 31.7818 6.66C31.7818 5.652 31.2178 5.016 30.3058 4.692ZM27.9898 2.016C28.9618 2.016 29.6818 2.076 29.6818 3.012C29.6818 3.984 28.9618 4.008 27.9778 4.008H26.7178V2.016H27.9898ZM26.7178 7.584V5.424H28.2178C29.1178 5.424 30.0058 5.46 30.0058 6.528C30.0058 7.524 29.2978 7.584 28.1578 7.584H26.7178ZM36.232 9V0.599999H34.42V9H36.232ZM42.4248 9C45.0408 9 46.6488 7.428 46.6488 4.8C46.6488 2.268 45.1248 0.599999 42.4248 0.599999H39.3288V9H42.4248ZM41.1408 2.016H42.3048C43.1688 2.016 43.9008 2.208 44.2968 2.808C44.6928 3.408 44.7648 3.984 44.7648 4.8C44.7648 5.604 44.6328 6.3 44.2488 6.792C43.8408 7.308 43.1928 7.584 42.3048 7.584H41.1408V2.016Z" fill="black"/>
</svg>
